<?xml version="1.0" encoding="UTF-8"?>
<svg width="56px" height="56px" viewBox="0 0 56 56" version="1.1" xmlns="http://www.w3.org/2000/svg" xmlns:xlink="http://www.w3.org/1999/xlink">
    <!-- Generator: Sketch 53.2 (72643) - https://sketchapp.com -->
    <title>cardano</title>
    <desc>Created with Sketch.</desc>
    <g id="cardano" stroke="none" stroke-width="1" fill="none" fill-rule="evenodd">
        <g id="Group">
            <circle id="Oval-1" fill="#008EC1" cx="28" cy="28" r="28"></circle>
            <g id="cardano" transform="translate(7.000000, 9.000000)" fill="#FFFFFF" fill-rule="nonzero">
                <path d="M20.4954123,0.136257436 C21.4103448,-0.343174689 22.5271964,0.769031909 22.0410795,1.68760952 C21.7587706,2.43639264 20.6883058,2.63550568 20.1415292,2.0647431 C19.5622189,1.51697134 19.7511244,0.434294213 20.4954123,0.136257436 L20.4954123,0.136257436 Z M10.6544828,1.2022715 C11.2102849,0.97236344 11.9138531,1.48406706 11.8571814,2.09279611 C11.9161619,2.75362358 11.112054,3.24001622 10.5455472,2.92594916 C9.79496252,2.63381828 9.8808096,1.40939968 10.6544828,1.2022715 L10.6544828,1.2022715 Z M30.8098651,2.94451055 C29.9413193,2.83904813 29.8038381,1.46677123 30.64006,1.19045971 C31.2886357,0.872595998 31.8836882,1.46866955 31.9785607,2.08646836 C31.8425487,2.61399135 31.4030285,3.09700919 30.8098651,2.94451055 L30.8098651,2.94451055 Z M12.8936432,5.41127637 C13.8228486,4.82068686 15.1487556,5.70024337 15.0058171,6.78481882 C14.9575412,7.87994051 13.5101049,8.51440238 12.6934033,7.77405625 C11.9037781,7.19253651 12.0234183,5.85843699 12.8936432,5.41127637 L12.8936432,5.41127637 Z M27.0785607,6.03793402 C27.4931034,4.96432666 29.1728936,4.93184424 29.6447376,5.97697674 C30.1111244,6.79030287 29.5374813,7.7974689 28.7065067,8.07399135 C27.6058171,8.28048675 26.5603298,7.08475392 27.0785607,6.03793402 L27.0785607,6.03793402 Z M19.3103448,8.01303407 C19.3013193,7.09023797 20.1377511,6.40262304 21.0104948,6.33976744 C21.5893853,6.45640887 22.2203298,6.70424554 22.4686357,7.29124932 C22.9314543,8.10098972 22.5204798,9.21593835 21.6842579,9.58758789 C21.3018291,9.80294213 20.8497151,9.72215792 20.4332834,9.69705787 C19.7966717,9.38299081 19.2605997,8.76709032 19.3103448,8.01303407 L19.3103448,8.01303407 Z M4.67541229,9.35767983 C5.52422789,8.83332071 6.66941529,9.79028664 6.34806597,10.7168794 C6.17112444,11.5183937 5.09898051,11.8444835 4.48608696,11.3327799 C3.83184408,10.8533478 3.93553223,9.70064359 4.67541229,9.35767983 L4.67541229,9.35767983 Z M36.101949,9.35599243 C36.822099,8.7940887 38.0105247,9.43867496 37.9246777,10.3524013 C37.9729535,11.1855544 36.9455172,11.8138994 36.2306147,11.3848783 C35.4432984,11.0292591 35.3629085,9.8120119 36.101949,9.35599243 L36.101949,9.35599243 Z M23.425967,11.0149162 C24.6143928,10.5858951 26.025937,11.0992861 26.7032684,12.1640346 C27.5967916,13.4656517 27.1213793,15.4479232 25.7348126,16.194808 C24.298081,17.0781612 22.2001799,16.329378 21.6695652,14.7170687 C21.0671664,13.2737101 21.9447376,11.4673499 23.425967,11.0149162 L23.425967,11.0149162 Z M16.4532534,11.1568686 C17.7703448,10.5321092 19.5429085,11.0562574 20.1791004,12.4101839 C20.9277961,13.7280422 20.3489055,15.5630882 19.0104048,16.2435316 C17.6702249,17.0083451 15.7794903,16.4285127 15.1309145,15.013629 C14.4036282,13.6453597 15.0494753,11.786901 16.4532534,11.1568686 L16.4532534,11.1568686 Z M9.47151424,13.5555057 C9.57163418,12.7027366 10.3721739,12.1477934 11.1798501,12.0904218 C12.050075,12.1958843 12.7452474,12.8750622 12.83991,13.7601028 C12.7828186,14.6362845 12.1090555,15.4926393 11.1850975,15.4873661 C10.1685757,15.5753218 9.27736132,14.559086 9.47151424,13.5555057 L9.47151424,13.5555057 Z M30.0932834,12.2758248 C31.1368816,11.6654083 32.585997,12.5540346 32.5396102,13.7588372 C32.6111844,15.0353542 31.0073763,15.9349486 29.9681859,15.1861655 C28.8886957,14.5626717 28.9728636,12.8067226 30.0932834,12.2758248 L30.0932834,12.2758248 Z M13.6156822,16.7748513 C14.8362219,16.4373716 16.2318141,17.0155165 16.8304348,18.1429097 C17.4861469,19.2776852 17.2181109,20.8541374 16.1997001,21.6864467 C14.8935232,22.9072796 12.4845577,22.4170903 11.7893853,20.7509951 C10.9905247,19.2236885 11.9608696,17.176874 13.6156822,16.7748513 L13.6156822,16.7748513 Z M26.8409595,16.7685235 C28.0274963,16.4274581 29.4214093,16.8870633 30.0592804,17.9733261 C30.9026387,19.2156733 30.50006,21.0686479 29.2444678,21.8695295 C27.9292654,22.799497 25.892024,22.3112061 25.1683058,20.8570903 C24.2909445,19.3529854 25.1737631,17.227285 26.8409595,16.7685235 L26.8409595,16.7685235 Z M5.7653973,18.1859383 C6.81970015,17.7851812 7.9883958,18.9543375 7.56125937,20.0047431 C7.30035982,20.961709 5.95829085,21.31543 5.2650075,20.6098864 C4.45376312,19.9473716 4.75412294,18.473218 5.7653973,18.1859383 L5.7653973,18.1859383 Z M34.3426087,19.710292 C34.3121739,18.8324229 34.9513043,18.054954 35.8471364,18.0064413 C36.5691754,18.1213953 37.2712744,18.7067117 37.2141829,19.4966252 C37.2802999,20.5398594 36.0293253,21.2489886 35.1448276,20.7587994 C34.7302849,20.5470308 34.5176612,20.1196971 34.3426087,19.710292 L34.3426087,19.710292 Z M0.581409295,18.7012277 C1.21571214,18.4230178 2.00029985,18.97543 1.85547226,19.6832937 C1.82146927,20.484808 0.643958021,20.7929692 0.211364318,20.1232829 C-0.170854573,19.6581936 0.0579310345,18.9410492 0.581409295,18.7012277 Z M40.5754423,18.6851974 C41.022099,18.3656463 41.7386807,18.5953434 41.9156222,19.1197025 C42.2157721,19.6923634 41.6654273,20.4770038 41.023988,20.3801893 C40.1235382,20.4626609 39.8322039,19.0836344 40.5754423,18.6851974 L40.5754423,18.6851974 Z M17.0608996,22.5326771 C18.729985,22.0964846 20.5241679,23.4951271 20.5346627,25.2221796 C20.6435982,26.9673716 18.8764918,28.514927 17.167946,28.1118496 C15.8472864,27.8981828 14.8110345,26.6197674 14.8538531,25.2787074 C14.8502849,23.9960736 15.8134933,22.8039264 17.0608996,22.5326771 L17.0608996,22.5326771 Z M23.6709145,22.5290914 C25.3649775,22.053245 27.2126837,23.4769876 27.1858171,25.2439048 C27.2752324,26.9568253 25.5633283,28.4522823 23.8904648,28.1124824 C22.3162519,27.9078853 21.1546927,26.1698648 21.5942129,24.6347539 C21.816072,23.6117685 22.6665667,22.779881 23.6709145,22.5290914 L23.6709145,22.5290914 Z M10.9262969,23.5921525 C12.0985607,23.3911412 13.1975712,24.7054137 12.7221589,25.8239481 C12.3754123,27.0158843 10.6492354,27.339232 9.88605697,26.365603 C8.99085457,25.4305733 9.65916042,23.7212385 10.9262969,23.5921525 L10.9262969,23.5921525 Z M30.3111544,23.6446728 C31.3564318,23.2046836 32.6395202,24.1133478 32.5591304,25.2533964 C32.6011094,26.5083991 31.0170315,27.3738237 29.9948426,26.6412818 C28.8370615,25.9836182 29.0477961,24.048172 30.3111544,23.6446728 L30.3111544,23.6446728 Z M35.7293853,29.1059383 C35.32009,28.3392266 36.0635382,27.3229908 36.9106747,27.4649432 C37.3323538,27.4577718 37.6272564,27.7916658 37.8971814,28.0717739 C37.9525937,28.526106 38.0455772,29.0681828 37.6702849,29.418318 C37.1606597,30.06649 36.0062369,29.8815089 35.7293853,29.1059383 L35.7293853,29.1059383 Z M4.67184408,27.6783991 C5.46356822,27.1487669 6.60287856,27.9386804 6.42488756,28.8688588 C6.33022489,29.6914657 5.29901049,30.1616171 4.6197901,29.6948405 C3.89082459,29.2710925 3.91769115,28.0646025 4.67184408,27.6783991 L4.67184408,27.6783991 Z M20.3132234,29.4003894 C21.3496852,28.9407842 22.6701349,29.84755 22.571904,30.9947701 C22.6487256,32.2624283 21.0155322,33.1402975 20.0021589,32.3790698 C18.8764918,31.7254137 19.0641379,29.8024121 20.3132234,29.4003894 L20.3132234,29.4003894 Z M13.0686957,31.0987561 C13.9515142,30.6319794 15.1361619,31.4381341 15.0557721,32.4309573 C15.0826387,33.2461817 14.2909145,33.9409681 13.4903748,33.82053 C12.8273163,33.8061871 12.3949325,33.208848 12.1823088,32.6408275 C12.1932234,32.0217631 12.4467766,31.3322499 13.0686957,31.0987561 L13.0686957,31.0987561 Z M27.7432984,31.113099 C28.6510945,30.5492969 29.9413193,31.3590373 29.8554723,32.4208329 C29.8787706,33.5305084 28.4206297,34.241325 27.5753823,33.5123688 C26.7570015,32.9409735 26.8569115,31.567431 27.7432984,31.113099 L27.7432984,31.113099 Z M30.2952024,37.4528664 C29.8913643,36.8388643 30.3667766,36.0991509 31.0224888,35.9590968 C31.5497451,36.0668794 32.1072264,36.4653164 31.9964018,37.0795295 C31.9195802,37.9107842 30.7097451,38.1657923 30.2952024,37.4528664 L30.2952024,37.4528664 Z M10.038021,36.9196485 C10.1988006,36.4330449 10.5883658,35.9493943 11.1584408,36.0759492 C11.9894153,36.135219 12.236042,37.3938075 11.5087556,37.7816982 C10.8547226,38.2248513 10.095952,37.6180206 10.038021,36.9196485 L10.038021,36.9196485 Z M19.8109445,37.4779665 C19.970045,36.75808 20.8973613,36.4079448 21.5085757,36.7903515 C21.9124138,36.9645754 22.0303748,37.4186966 22.134063,37.804689 C22.0786507,38.0057004 22.0291154,38.2069227 21.9804198,38.407934 C21.7302249,38.7059708 21.4086657,39.0040076 20.9922339,38.9932504 C20.2183508,39.0843699 19.5202399,38.2052353 19.8109445,37.4779665 L19.8109445,37.4779665 Z" id="Shape"></path>
            </g>
        </g>
    </g>
</svg>